REM DIRINDEX 1\2,1\3,1\4,1\5
REM DIRNAME folder01,folder02,folder03,folder04,folder05
TITLE ""
FILE "1800_103.mp3" MP3
  TRACK 01 AUDIO
    TITLE "2:cjc044_2865"
    INDEX 01 00:00:00
  TRACK 02 AUDIO
    TITLE "0:"
    INDEX 01 00:01:15
  TRACK 03 AUDIO
    TITLE "3:cjc044_2866"
    INDEX 01 00:01:73
  TRACK 04 AUDIO
    TITLE "0:"
    INDEX 01 00:03:72
  TRACK 05 AUDIO
    TITLE "4:cjc044_2867"
    INDEX 01 00:04:58
  TRACK 06 AUDIO
    TITLE "0:"
    INDEX 01 00:06:06
  TRACK 07 AUDIO
    TITLE "5:cjc044_2868"
    INDEX 01 00:06:55
  TRACK 08 AUDIO
    TITLE "0:"
    INDEX 01 00:10:04
  TRACK 09 AUDIO
    TITLE "2:cjc044_2869"
    INDEX 01 00:11:64
  TRACK 10 AUDIO
    TITLE "0:"
    INDEX 01 00:13:06
  TRACK 11 AUDIO
    TITLE "3:cjc044_2870"
    INDEX 01 00:13:59
  TRACK 12 AUDIO
    TITLE "0:"
    INDEX 01 00:15:01
  TRACK 13 AUDIO
    TITLE "4:cjc044_2871"
    INDEX 01 00:15:60
  TRACK 14 AUDIO
    TITLE "0:"
    INDEX 01 00:17:00
  TRACK 15 AUDIO
    TITLE "5:cjc044_2872"
    INDEX 01 00:17:57
  TRACK 16 AUDIO
    TITLE "0:"
    INDEX 01 00:20:43
  TRACK 17 AUDIO
    TITLE "2:cjc044_2873"
    INDEX 01 00:22:29
  TRACK 18 AUDIO
    TITLE "0:"
    INDEX 01 00:23:40
  TRACK 19 AUDIO
    TITLE "3:cjc044_2874"
    INDEX 01 00:24:25
  TRACK 20 AUDIO
    TITLE "0:"
    INDEX 01 00:25:46
  TRACK 21 AUDIO
    TITLE "4:cjc044_2875"
    INDEX 01 00:26:32
  TRACK 22 AUDIO
    TITLE "0:"
    INDEX 01 00:27:45
  TRACK 23 AUDIO
    TITLE "5:cjc044_2876"
    INDEX 01 00:28:19
  TRACK 24 AUDIO
    TITLE "0:"
    INDEX 01 00:32:01
  TRACK 25 AUDIO
    TITLE "2:cjc044_2877"
    INDEX 01 00:33:64
  TRACK 26 AUDIO
    TITLE "0:"
    INDEX 01 00:34:67
  TRACK 27 AUDIO
    TITLE "3:cjc044_2878"
    INDEX 01 00:35:47
  TRACK 28 AUDIO
    TITLE "0:"
    INDEX 01 00:37:28
  TRACK 29 AUDIO
    TITLE "4:cjc044_2879"
    INDEX 01 00:38:10
  TRACK 30 AUDIO
    TITLE "0:"
    INDEX 01 00:39:13
  TRACK 31 AUDIO
    TITLE "5:cjc044_2880"
    INDEX 01 00:39:60
  TRACK 32 AUDIO
    TITLE "0:"
    INDEX 01 00:43:15
  TRACK 33 AUDIO
    TITLE "2:cjc044_2881"
    INDEX 01 00:45:04
  TRACK 34 AUDIO
    TITLE "0:"
    INDEX 01 00:46:27
  TRACK 35 AUDIO
    TITLE "3:cjc044_2882"
    INDEX 01 00:47:13
  TRACK 36 AUDIO
    TITLE "0:"
    INDEX 01 00:48:51
  TRACK 37 AUDIO
    TITLE "4:cjc044_2883"
    INDEX 01 00:49:33
  TRACK 38 AUDIO
    TITLE "0:"
    INDEX 01 00:50:64
  TRACK 39 AUDIO
    TITLE "5:cjc044_2884"
    INDEX 01 00:51:42
  TRACK 40 AUDIO
    TITLE "0:"
    INDEX 01 00:55:06
  TRACK 41 AUDIO
    TITLE "2:cjc044_2885"
    INDEX 01 00:56:69
  TRACK 42 AUDIO
    TITLE "0:"
    INDEX 01 00:58:09
  TRACK 43 AUDIO
    TITLE "3:cjc044_2886"
    INDEX 01 00:58:64
  TRACK 44 AUDIO
    TITLE "0:"
    INDEX 01 00:59:63
  TRACK 45 AUDIO
    TITLE "4:cjc044_2887"
    INDEX 01 01:00:43
  TRACK 46 AUDIO
    TITLE "0:"
    INDEX 01 01:01:58
  TRACK 47 AUDIO
    TITLE "5:cjc044_2888"
    INDEX 01 01:02:38
  TRACK 48 AUDIO
    TITLE "0:"
    INDEX 01 01:05:54
  TRACK 49 AUDIO
    TITLE "2:cjc044_2889"
    INDEX 01 01:07:39
  TRACK 50 AUDIO
    TITLE "0:"
    INDEX 01 01:08:46
  TRACK 51 AUDIO
    TITLE "3:cjc044_2890"
    INDEX 01 01:09:26
  TRACK 52 AUDIO
    TITLE "0:"
    INDEX 01 01:11:02
  TRACK 53 AUDIO
    TITLE "4:cjc044_2891"
    INDEX 01 01:11:58
  TRACK 54 AUDIO
    TITLE "0:"
    INDEX 01 01:12:66
  TRACK 55 AUDIO
    TITLE "5:cjc044_2892"
    INDEX 01 01:13:40
  TRACK 56 AUDIO
    TITLE "0:"
    INDEX 01 01:16:46
  TRACK 57 AUDIO
    TITLE "2:cjc044_2893"
    INDEX 01 01:18:31
  TRACK 58 AUDIO
    TITLE "0:"
    INDEX 01 01:19:48
  TRACK 59 AUDIO
    TITLE "3:cjc044_2894"
    INDEX 01 01:20:32
  TRACK 60 AUDIO
    TITLE "0:"
    INDEX 01 01:21:43
  TRACK 61 AUDIO
    TITLE "4:cjc044_2895"
    INDEX 01 01:22:25
  TRACK 62 AUDIO
    TITLE "0:"
    INDEX 01 01:23:42
  TRACK 63 AUDIO
    TITLE "5:cjc044_2896"
    INDEX 01 01:24:28
  TRACK 64 AUDIO
    TITLE "0:"
    INDEX 01 01:28:25
